HIERARCHY
ROOT RootJoint
{
    OFFSET   0.000000   0.000000   0.000000
    CHANNELS 6 Xposition Yposition Zposition Xrotation Yrotation Zrotation
    JOINT pelvis_lowerback
    {
        OFFSET   0.000000   0.093605   0.000000
        CHANNELS 3 Xrotation Yrotation Zrotation
        JOINT lowerback_torso
        {
            OFFSET   0.000000   0.100000   0.000000
            CHANNELS 3 Xrotation Yrotation Zrotation
            JOINT torso_head
            {
                OFFSET   0.000000   0.282350   0.000000
                CHANNELS 3 Xrotation Yrotation Zrotation
                End Site
                {
                    OFFSET   0.000000   0.192650   0.000000
                }
            }
            JOINT rTorso_Clavicle
            {
                OFFSET  -0.001000   0.157500   0.000000
                CHANNELS 3 Xrotation Yrotation Zrotation
                JOINT rShoulder
                {
                    OFFSET  -0.117647   0.000000   0.000000
                    CHANNELS 3 Xrotation Yrotation Zrotation
                    JOINT rElbow
                    {
                        OFFSET  -0.245000   0.000000   0.000000
                        CHANNELS 3 Xrotation Yrotation Zrotation
                        JOINT rWrist
                        {
                            OFFSET  -0.240000   0.000000   0.000000
                            CHANNELS 3 Xrotation Yrotation Zrotation
                            End Site
                            {
                                OFFSET  -0.116353  -0.002500   0.000000
                            }
                        }
                    }
                }
            }
            JOINT lTorso_Clavicle
            {
                OFFSET   0.001000   0.157500   0.000000
                CHANNELS 3 Xrotation Yrotation Zrotation
                JOINT lShoulder
                {
                    OFFSET   0.117647   0.000000   0.000000
                    CHANNELS 3 Xrotation Yrotation Zrotation
                    JOINT lElbow
                    {
                        OFFSET   0.245000   0.000000   0.000000
                        CHANNELS 3 Xrotation Yrotation Zrotation
                        JOINT lWrist
                        {
                            OFFSET   0.240000   0.000000   0.000000
                            CHANNELS 3 Xrotation Yrotation Zrotation
                            End Site
                            {
                                OFFSET   0.116353  -0.002500   0.000000
                            }
                        }
                    }
                }
            }
        }
    }
    JOINT rHip
    {
        OFFSET  -0.100000  -0.051395   0.000000
        CHANNELS 3 Xrotation Yrotation Zrotation
        JOINT rKnee
        {
            OFFSET   0.000000  -0.410000   0.000000
            CHANNELS 3 Xrotation Yrotation Zrotation
            JOINT rAnkle
            {
                OFFSET   0.000000  -0.390000   0.000000
                CHANNELS 3 Xrotation Yrotation Zrotation
                JOINT rToeJoint
                {
                    OFFSET   0.000000  -0.050000   0.130000
                    CHANNELS 3 Xrotation Yrotation Zrotation
                    End Site
                    {
                        OFFSET  -0.010000   0.002000   0.060000
                    }
                }
            }
        }
    }
    JOINT lHip
    {
        OFFSET   0.100000  -0.051395   0.000000
        CHANNELS 3 Xrotation Yrotation Zrotation
        JOINT lKnee
        {
            OFFSET   0.000000  -0.410000   0.000000
            CHANNELS 3 Xrotation Yrotation Zrotation
            JOINT lAnkle
            {
                OFFSET   0.000000  -0.390000   0.000000
                CHANNELS 3 Xrotation Yrotation Zrotation
                JOINT lToeJoint
                {
                    OFFSET   0.000000  -0.050000   0.130000
                    CHANNELS 3 Xrotation Yrotation Zrotation
                    End Site
                    {
                        OFFSET   0.010000   0.002000   0.060000
                    }
                }
            }
        }
    }
}
MOTION
Frames: 10
Frame Time:   0.008333
 -0.690984   0.890917   6.274890  -8.360009  29.669604   5.684268   8.267442  -4.996476   0.389442   2.250615  -2.399805   2.097818   1.370188  -5.978358   1.003248   2.483286  -2.050382   7.277644   7.312400   2.477157  46.837044  -0.033455  61.227197   0.048936   2.386958   3.888940 -11.458483   4.060147  -1.287412  -9.597145  -1.354498  -6.713545 -47.648283   0.007080 -80.652457   0.007369  -1.371464  -3.847313  16.414085 -13.016054 -17.756408  -0.508209  28.929339   0.000262   0.000456 -12.226533 -20.050275  -8.514250  -0.480889  -0.000054  -0.000058  -4.040659  15.085439   7.826191  65.425294  -0.065130  -0.043773  -4.749793  11.834174  -4.212586  -4.085949  -0.018006  -0.023492
 -0.687797   0.891383   6.277291  -8.382338  28.489829   5.636647   8.332138  -4.853827   0.366188   2.295130  -2.373824   2.088937   1.491829  -5.913133   1.091038   2.488964  -1.974506   7.289512   7.218685   2.738539  46.825225  -0.034775  62.081479   0.050180   2.367227   3.803536 -11.459457   4.119602  -1.195763  -9.487231  -1.012436  -6.804530 -47.734635   0.000830 -80.566059   0.000890  -1.310546  -3.778251  16.274987 -12.694512 -17.146756  -0.427058  28.934164   0.000210   0.000340 -12.237762 -19.257897  -8.340338  -0.511648  -0.000032  -0.000105  -4.678691  14.701897   7.929991  66.011880  -0.058779  -0.038447  -5.269489  11.767653  -3.917874  -3.936022  -0.016024  -0.020196
 -0.684625   0.891881   6.279657  -8.385724  27.285386   5.582874   8.380531  -4.711040   0.335852   2.321754  -2.339519   2.068601   1.603148  -5.848965   1.172711   2.490887  -1.895571   7.303554   7.128076   2.997446  46.826049  -0.036142  62.896867   0.051401   2.366466   3.812826 -11.418497   4.183981  -1.108864  -9.385837  -0.684487  -6.890194 -47.819414  -0.003914 -80.482280  -0.004029  -1.257658  -3.690541  16.113240 -12.394745 -16.555745  -0.368882  28.926420   0.000169   0.000315 -12.251357 -18.511535  -8.181555  -0.535126  -0.000021  -0.000109  -5.299721  14.288322   8.055090  66.432416  -0.052035  -0.033210  -5.766147  11.704287  -3.639877  -3.840598  -0.013876  -0.017047
 -0.681442   0.892391   6.281970  -8.383562  26.047668   5.528576   8.423290  -4.565637   0.300739   2.340206  -2.296195   2.042006   1.705199  -5.788672   1.247721   2.485807  -1.812414   7.317117   7.037678   3.246757  46.829052  -0.037512  63.662725   0.052495   2.372802   3.858770 -11.365359   4.246621  -1.026852  -9.294234  -0.376072  -6.970238 -47.900495  -0.007355 -80.403326  -0.007606  -1.209265  -3.598435  15.949366 -12.111435 -15.996069  -0.340558  28.918710   0.000137   0.000300 -12.274704 -17.814164  -8.038084  -0.551694  -0.000015  -0.000087  -5.907130  13.878104   8.206612  66.780242  -0.045868  -0.028576  -6.231475  11.643181  -3.380537  -3.755867  -0.012043  -0.014424
 -0.678246   0.892907   6.284238  -8.386691  24.812208   5.481959   8.463245  -4.432691   0.261266   2.355074  -2.255825   2.012138   1.799828  -5.732626   1.317293   2.477798  -1.731060   7.329650   6.950400   3.482384  46.832403  -0.038759  64.379368   0.053339   2.381535   3.917146 -11.313185   4.304408  -0.952355  -9.210361  -0.088492  -7.046712 -47.976891  -0.009742 -80.329457  -0.010095  -1.163303  -3.507936  15.785642 -11.837707 -15.434074  -0.332381  28.912404   0.000110   0.000279 -12.295382 -17.117434  -7.900254  -0.563024  -0.000012  -0.000069  -6.501356  13.470330   8.381445  67.086207  -0.040418  -0.024572  -6.666449  11.584488  -3.138651  -3.679718  -0.010468  -0.012229
 -0.675019   0.893430   6.286467  -8.398398  23.596671   5.446087   8.499825  -4.315937   0.220122   2.367752  -2.223685   1.979788   1.887852  -5.680577   1.381811   2.470200  -1.655661   7.339878   6.868677   3.701899  46.834751  -0.039778  65.048380   0.053843   2.390473   3.976306 -11.266896   4.356406  -0.886211  -9.134039   0.178570  -7.120812 -48.049144  -0.011278 -80.260799  -0.011708  -1.118626  -3.422364  15.621803 -11.571251 -14.873813  -0.347011  28.909345   0.000089   0.000242 -12.317899 -16.434604  -7.772259  -0.568279  -0.000010  -0.000056  -7.078752  13.069907   8.571951  67.360288  -0.035613  -0.021127  -7.072818  11.528198  -2.913163  -3.611330  -0.009102  -0.010380
 -0.671755   0.893960   6.288662  -8.418742  22.410692   5.420353   8.532061  -4.215932   0.179626   2.378334  -2.201513   1.946375   1.969696  -5.632206   1.441839   2.464842  -1.588223   7.347147   6.793723   3.904515  46.835480  -0.040494  65.672027   0.053960   2.398508   4.030236 -11.228236   4.402556  -0.828126  -9.064677   0.426058  -7.192954 -48.117592  -0.012140 -80.197321  -0.012625  -1.074601  -3.343564  15.458237 -11.310743 -14.319563  -0.384464  28.909056   0.000071   0.000195 -12.343381 -15.771009  -7.652636  -0.568012  -0.000008  -0.000044  -7.636868  12.680650   8.771776  67.607757  -0.031370  -0.018169  -7.452378  11.474263  -2.703046  -3.549955  -0.007911  -0.008819
 -0.668344   0.894701   6.290973  -8.431820  21.148041   5.458385   8.555292  -4.098564   0.106971   2.352791  -2.177363   1.844612   2.037472  -5.522282   1.494747   2.482763  -1.516970   7.391934   6.814851   4.189625  46.831792  -0.040870  66.347899   0.054058   2.381758   3.998225 -11.247253   4.425210  -0.724043  -9.005947   0.776315  -7.285577 -48.169064  -0.018694 -80.019639  -0.019469  -0.987064  -3.383538  15.341494 -11.050691 -13.657401  -0.498180  28.871678   0.000047   0.000376 -12.290832 -14.957533  -7.330581  -0.606260   0.000039  -0.000091  -7.846550  12.032328   8.736302  67.004633  -0.016550  -0.009911  -7.964986  11.302703  -2.384662  -3.537269  -0.006508  -0.007190
 -0.664973   0.895427   6.293233  -8.402752  19.864620   5.462134   8.560010  -3.980913   0.045881   2.309554  -2.143794   1.745262   2.092243  -5.418181   1.542396   2.500145  -1.443236   7.436531   6.835531   4.466976  46.839068  -0.041239  66.989225   0.054141   2.374555   4.013846 -11.222222   4.459945  -0.619915  -8.951714   1.115841  -7.366623 -48.219871  -0.023519 -79.846054  -0.024525  -0.913049  -3.383210  15.213429 -10.833088 -13.019001  -0.607944  28.821380   0.000030   0.000616 -12.237480 -14.187811  -7.034077  -0.638714   0.000064  -0.000093  -8.037176  11.344390   8.727216  66.229570  -0.001953  -0.001612  -8.452552  11.139191  -2.085660  -3.533722  -0.005274  -0.005776
 -0.661627   0.896099   6.295429  -8.361307  18.573931   5.450235   8.566295  -3.867050  -0.011255   2.265108  -2.106625   1.652310   2.140826  -5.321214   1.586692   2.512895  -1.368808   7.479239   6.851887   4.730704  46.848297  -0.041533  67.590865   0.054056   2.371306   4.049630 -11.185565   4.495092  -0.521004  -8.900181   1.435338  -7.441050 -48.267004  -0.026678 -79.682732  -0.027858  -0.846341  -3.367933  15.085367 -10.644357 -12.409565  -0.724943  28.776815   0.000020   0.000786 -12.161362 -13.455082  -6.757088  -0.822182   0.000197  -0.000077  -8.228166  10.669400   8.756562  65.442475   0.009754   0.005266  -8.909088  10.984637  -1.807056  -3.530168  -0.004280  -0.004649
